<svg width="361" height="240" viewBox="0 0 361 240" fill="none" xmlns="http://www.w3.org/2000/svg">
<g clip-path="url(#clip0_6_24)">
<path d="M78.1295 34.0216L80.7663 34.0836C109.649 34.5794 100.021 77.4651 69.1152 66.124C46.3037 57.7575 50.5349 19.2719 74.9408 12.9506C85.7333 10.1618 97.7523 12.1449 88.7994 15.2436C81.1342 17.8465 74.9408 25.3453 75.37 31.4807C75.4927 32.8441 76.6577 34.0216 78.1295 34.0216Z" fill="black"/>
<path d="M21.776 67.6731C-6.0025 56.8897 5.28062 9.78978 36.1252 7.74464C44.1583 7.18689 46.2432 9.10808 40.1724 11.4011C34.2856 13.6321 26.8657 24.1677 26.0685 31.2946C25.8846 32.72 26.9883 33.8975 28.3987 33.8975C36.4931 33.8975 39.8658 33.8975 44.5875 40.4667C56.1773 56.7038 40.7856 75.048 21.776 67.6731Z" fill="black"/>
<path d="M270.95 230.89C268.934 229.199 270.365 227.573 273.941 227.573C277.778 227.573 282.656 218.729 282.656 211.966C282.656 208.584 282.2 208.389 275.502 208.389C256.318 208.389 249.49 192.002 263.211 178.865C282.721 160.137 309.903 184.653 300.279 212.291C295.337 226.273 278.298 237.068 270.95 230.89Z" fill="black"/>
<path d="M349.767 215.608C344.369 226.988 326.616 236.938 319.398 232.711C317.382 231.54 318.162 230.435 323.104 227.313C332.599 221.265 335.525 211.316 327.787 211.316C306.066 211.316 300.734 180.621 321.349 174.248C346.06 166.64 362.058 189.92 349.767 215.608Z" fill="black"/>
<path d="M70.375 138C69.9583 136.167 69.9583 135 70.375 134.5C70.875 133.917 71.9583 133.417 73.625 133C74.2083 130.583 74.75 128.292 75.25 126.125C75.75 123.958 76.25 121.833 76.75 119.75C78.1667 113.75 79.5 108.417 80.75 103.75C82.0833 99 83.2917 94.75 84.375 91C85.5417 87.25 86.625 83.875 87.625 80.875C88.625 77.875 89.5833 75.0833 90.5 72.5C91.4167 71.8333 92.3333 71.3333 93.25 71C94.1667 70.5833 95.0417 70.25 95.875 70C96.7917 69.6667 97.75 69.4167 98.75 69.25C99.5833 69.1667 100.333 69.1667 101 69.25C101.583 69.3333 102.083 69.5 102.5 69.75C102.917 70 103.167 70.375 103.25 70.875C100.083 79.2917 97.3333 87.0833 95 94.25C92.75 101.417 90.875 107.625 89.375 112.875C87.625 119.042 86.1667 124.667 85 129.75C89 128.167 92.8333 125.917 96.5 123C100.25 120 103.667 116.708 106.75 113.125C109.833 109.458 112.583 105.667 115 101.75C117.5 97.75 119.5 93.9167 121 90.25C122.5 86.5833 123.5 83.2083 124 80.125C124.583 77.0417 124.5 74.5833 123.75 72.75C125.75 71.8333 127.625 71.125 129.375 70.625C130.292 70.2917 131.167 70.0417 132 69.875C134.167 69.2917 135.5 69.6667 136 71C136.583 72.25 136.792 74.1667 136.625 76.75C136.375 82.6667 134.875 88.4583 132.125 94.125C129.458 99.7917 126.042 105.125 121.875 110.125C117.708 115.042 113.083 119.458 108 123.375C103 127.292 98.0417 130.375 93.125 132.625C94.5417 132.458 95.9167 132.333 97.25 132.25C98.5833 132.167 99.8333 132.125 101 132.125C103.25 132.125 105.333 132.375 107.25 132.875C109.167 133.292 110.833 134.042 112.25 135.125C113.75 136.208 114.875 137.625 115.625 139.375C116.458 141.125 116.833 143.292 116.75 145.875C116.583 149.875 116.042 153.417 115.125 156.5C114.208 159.583 113.208 162.417 112.125 165C111.125 167.667 110.167 170.125 109.25 172.375C108.333 174.625 107.833 176.917 107.75 179.25C107.667 181.583 108 183.5 108.75 185C109.5 186.583 110.458 187.833 111.625 188.75C112.875 189.75 114.167 190.458 115.5 190.875C116.833 191.292 118.083 191.5 119.25 191.5C120.667 191.5 122.208 191.333 123.875 191C125.542 190.75 127 190.417 128.25 190C128.75 189.833 129.125 189.958 129.375 190.375C129.708 190.792 129.875 191.167 129.875 191.5C129.875 191.833 129.667 192.417 129.25 193.25C128.833 194.167 128.042 194.875 126.875 195.375C125.708 195.958 124.208 196.542 122.375 197.125C120.542 197.708 118.042 198 114.875 198C112.792 198 110.625 197.5 108.375 196.5C106.125 195.583 104.083 194.25 102.25 192.5C100.417 190.833 98.9167 188.875 97.75 186.625C96.5833 184.375 96.0833 181.958 96.25 179.375C96.3333 176.625 96.8333 173.875 97.75 171.125C98.6667 168.375 99.625 165.708 100.625 163.125C101.708 160.542 102.667 158.083 103.5 155.75C104.417 153.333 104.917 151.083 105 149C105.167 145.25 104.208 142.458 102.125 140.625C100.042 138.708 96.5 137.75 91.5 137.75C89.8333 137.75 88.25 137.833 86.75 138C85.3333 138.167 84.1667 138.333 83.25 138.5C81 149.833 79.4583 158.375 78.625 164.125C77.7917 169.875 77.3333 173.625 77.25 175.375V177.625C77.25 178.292 77.2917 178.958 77.375 179.625C77.4583 180.375 77.5833 181.083 77.75 181.75C76.25 182.833 74.75 183.625 73.25 184.125C71.8333 184.708 70.5417 185.125 69.375 185.375C67.9583 185.708 66.6667 185.875 65.5 185.875C64.9167 185.875 64.375 185.792 63.875 185.625C63.4583 185.458 63.0417 185.292 62.625 185.125C62.125 184.958 61.7917 184.667 61.625 184.25C62.9583 178.667 64.25 173.292 65.5 168.125C66.75 162.958 67.8333 158.333 68.75 154.25C69.8333 149.583 70.875 145.125 71.875 140.875C71.5417 140.542 71.25 140.167 71 139.75C70.75 139.333 70.5417 138.75 70.375 138ZM129.75 161C133.417 145.583 136.333 133.208 138.5 123.875C140.75 114.542 142.458 107.417 143.625 102.5C144.958 96.6667 145.875 92.625 146.375 90.375C146.625 88.7917 146.833 87.25 147 85.75C147.167 84.4167 147.25 83.0417 147.25 81.625C147.25 80.2083 147.125 78.9167 146.875 77.75C147.542 77.3333 148.25 77 149 76.75C149.833 76.5 150.625 76.2917 151.375 76.125C152.292 75.875 153.208 75.6667 154.125 75.5C155.042 75.3333 155.875 75.25 156.625 75.25C157.292 75.25 157.917 75.3333 158.5 75.5C159.083 75.5833 159.458 75.8333 159.625 76.25C160.125 76.6667 160.333 77.5 160.25 78.75C160.25 80 160.167 81.2917 160 82.625C159.667 84.2083 159.292 85.9167 158.875 87.75C157.875 91.3333 156.5 96.5 154.75 103.25C153.25 109 151.208 116.833 148.625 126.75C146.125 136.667 142.958 149.167 139.125 164.25C138.708 164.667 138.208 164.958 137.625 165.125C137.042 165.292 136.5 165.375 136 165.375C135.417 165.375 134.792 165.333 134.125 165.25C133.542 165.083 132.958 164.833 132.375 164.5C131.875 164.167 131.375 163.708 130.875 163.125C130.375 162.625 130 161.917 129.75 161ZM175.125 165C171.958 165 169.375 164.5 167.375 163.5C165.375 162.5 163.792 161.292 162.625 159.875C161.542 158.375 160.75 156.792 160.25 155.125C159.833 153.375 159.625 151.792 159.625 150.375C159.625 147.875 159.833 145.25 160.25 142.5C160.667 139.667 161.167 137.083 161.75 134.75C162.333 132.333 162.833 130.292 163.25 128.625C163.75 126.958 164.083 125.917 164.25 125.5C165 123.083 165.958 121 167.125 119.25C168.375 117.417 170.083 116.167 172.25 115.5C173.083 115.333 173.958 115.167 174.875 115C175.625 114.917 176.375 114.875 177.125 114.875C177.958 114.875 178.708 115 179.375 115.25C177.125 121 175.333 125.792 174 129.625C172.75 133.458 171.792 136.583 171.125 139C170.375 141.75 169.917 143.958 169.75 145.625C169.333 149.375 169.667 152.208 170.75 154.125C171.833 156.042 174.042 157 177.375 157C179.542 157 181.625 156.208 183.625 154.625C185.625 152.958 187.458 150.833 189.125 148.25C188.875 146.917 188.75 145.542 188.75 144.125C188.75 141.458 188.958 138.875 189.375 136.375C189.875 133.792 190.417 131.417 191 129.25C191.667 127 192.333 125 193 123.25C193.75 121.5 194.375 120.125 194.875 119.125C195.792 117.125 196.625 115.917 197.375 115.5C198.125 115 199.333 114.708 201 114.625C201.667 114.542 202.208 114.542 202.625 114.625C203.125 114.625 203.542 114.667 203.875 114.75C204.875 115 205.375 115.5 205.375 116.25C205.375 117.583 205.292 119.583 205.125 122.25C204.958 124.917 204.458 127.667 203.625 130.5C203.042 132.833 202.458 134.833 201.875 136.5C201.375 138.083 200.875 139.458 200.375 140.625C199.875 141.708 199.375 142.625 198.875 143.375C198.375 144.042 197.917 144.667 197.5 145.25C197.667 147.75 197.875 149.75 198.125 151.25C198.375 152.75 198.667 153.917 199 154.75C199.417 155.5 199.875 156.042 200.375 156.375C200.958 156.625 201.583 156.75 202.25 156.75C203.417 156.75 204.792 156.208 206.375 155.125C207.958 153.958 209.583 152.542 211.25 150.875C213 149.125 214.708 147.25 216.375 145.25C218.125 143.167 219.708 141.208 221.125 139.375C222.542 137.542 223.75 135.958 224.75 134.625C225.75 133.208 226.375 132.333 226.625 132C227.208 131.25 227.75 130.792 228.25 130.625C228.833 130.458 229.292 130.542 229.625 130.875C229.958 131.125 230.125 131.583 230.125 132.25C230.208 132.833 230.042 133.5 229.625 134.25C227.958 137.417 225.875 140.792 223.375 144.375C220.958 147.875 218.333 151.125 215.5 154.125C212.75 157.125 209.958 159.625 207.125 161.625C204.292 163.625 201.625 164.625 199.125 164.625C196.875 164.625 195.083 163.875 193.75 162.375C192.5 160.792 191.417 158.542 190.5 155.625C188.583 158.625 186.333 160.958 183.75 162.625C181.167 164.208 178.292 165 175.125 165ZM252.625 180.875C252.208 182.875 251.667 185.375 251 188.375C250.417 191.375 249.708 194.542 248.875 197.875C248.125 201.208 247.208 204.5 246.125 207.75C245.125 211.083 244 214.042 242.75 216.625C241.5 219.292 240.125 221.458 238.625 223.125C237.125 224.792 235.458 225.625 233.625 225.625C230.875 225.625 228.5 224.792 226.5 223.125C224.583 221.542 222.958 219.5 221.625 217C220.292 214.583 219.333 211.958 218.75 209.125C218.083 206.292 217.75 203.667 217.75 201.25C217.75 197.917 218.042 195.125 218.625 192.875C219.208 190.708 220.208 188.625 221.625 186.625C223.125 184.625 225.125 182.5 227.625 180.25C230.125 178 233.333 175.208 237.25 171.875C239.167 170.208 241 168.625 242.75 167.125C244.5 165.625 246.167 164.25 247.75 163C248.167 161.333 248.542 159.792 248.875 158.375C249.292 156.875 249.625 155.542 249.875 154.375C247.708 157.292 245.083 159.75 242 161.75C239 163.75 235.542 164.75 231.625 164.75C228.042 164.75 225.125 163.167 222.875 160C220.708 156.75 219.625 152 219.625 145.75C219.625 142.667 220.208 139.125 221.375 135.125C222.542 131.125 224.208 127.375 226.375 123.875C228.542 120.375 231.208 117.417 234.375 115C237.542 112.583 241.083 111.375 245 111.375C246.833 111.375 248.417 111.833 249.75 112.75C251.083 113.667 252.208 114.833 253.125 116.25C254.042 117.583 254.75 119.042 255.25 120.625C255.75 122.125 256.125 123.542 256.375 124.875C256.542 124.375 256.667 123.875 256.75 123.375C256.833 122.792 256.958 122.292 257.125 121.875C257.958 119.042 258.875 117.125 259.875 116.125C260.958 115.042 262.542 114.5 264.625 114.5C265.792 114.5 266.75 114.708 267.5 115.125C268.333 115.542 268.75 115.917 268.75 116.25C268.333 117.167 268 117.875 267.75 118.375C267.5 118.875 267.25 119.417 267 120C266.75 120.5 266.5 121.167 266.25 122C266 122.833 265.667 124.042 265.25 125.625C265.083 126.208 264.75 127.583 264.25 129.75C263.833 131.833 263.25 134.333 262.5 137.25C261.833 140.167 261.083 143.375 260.25 146.875C259.5 150.375 258.75 153.792 258 157.125C260.333 155.792 262.75 154.167 265.25 152.25C267.75 150.333 270.125 148.375 272.375 146.375C274.625 144.375 276.625 142.5 278.375 140.75C280.125 138.917 281.417 137.417 282.25 136.25C282.917 135.25 283.667 134.542 284.5 134.125C285.333 133.708 286.042 133.583 286.625 133.75C287.292 133.833 287.667 134.208 287.75 134.875C287.917 135.458 287.667 136.292 287 137.375C285.083 140.458 282.75 143.458 280 146.375C277.25 149.208 274.417 151.875 271.5 154.375C268.667 156.792 265.875 158.958 263.125 160.875C260.458 162.708 258.167 164.208 256.25 165.375C255.417 169.125 254.708 172.167 254.125 174.5C253.542 176.833 253.042 178.958 252.625 180.875ZM236.875 156.25C238.625 156.25 240.25 155.792 241.75 154.875C243.333 153.958 244.75 152.917 246 151.75C247.25 150.5 248.292 149.25 249.125 148C249.958 146.75 250.583 145.75 251 145C251.333 144.25 251.708 143.25 252.125 142C252.625 140.75 253 139.542 253.25 138.375C253.5 137.208 253.583 136.167 253.5 135.25C253.5 134.333 253.208 133.833 252.625 133.75C252.125 133.667 251.708 133.333 251.375 132.75C251.125 132.167 250.917 131.5 250.75 130.75C250.583 130 250.458 129.25 250.375 128.5C250.375 127.75 250.333 127.083 250.25 126.5C249.833 123.583 249.125 121.458 248.125 120.125C247.125 118.792 246 118.125 244.75 118.125C242.667 118.125 240.667 118.958 238.75 120.625C236.917 122.292 235.25 124.458 233.75 127.125C232.333 129.708 231.208 132.583 230.375 135.75C229.542 138.833 229.125 141.792 229.125 144.625C229.125 148.125 229.625 150.958 230.625 153.125C231.625 155.208 233.708 156.25 236.875 156.25ZM231.125 214.25C232.792 214.25 234.125 213 235.125 210.5C236.208 208.083 237.333 204.75 238.5 200.5C238.75 199.5 239.083 198.042 239.5 196.125C240 194.292 240.542 192.167 241.125 189.75C241.792 187.333 242.458 184.708 243.125 181.875C243.792 179.125 244.5 176.333 245.25 173.5C244.583 174.083 243.875 174.667 243.125 175.25C242.458 175.917 241.75 176.667 241 177.5C239.167 179.25 237.375 180.917 235.625 182.5C233.958 184.167 232.458 185.875 231.125 187.625C229.792 189.458 228.708 191.417 227.875 193.5C227.125 195.583 226.75 198 226.75 200.75C226.75 203.5 226.833 205.75 227 207.5C227.25 209.25 227.542 210.625 227.875 211.625C228.292 212.625 228.75 213.292 229.25 213.625C229.833 214.042 230.458 214.25 231.125 214.25Z" fill="black"/>
</g>
<defs>
<clipPath id="clip0_6_24">
<rect width="361" height="240" fill="white"/>
</clipPath>
</defs>
</svg>
